<svg version="1.1" id="Layer_1" xmlns="http://www.w3.org/2000/svg" xmlns:xlink="http://www.w3.org/1999/xlink" x="0px" y="0px"
	 width="100%" viewBox="0 0 400 400" enable-background="new 0 0 400 400" xml:space="preserve">
<path fill="#000000" opacity="1.000000" stroke="none" 
	d="
M236.000000,1.000000 
	C290.984741,1.000000 345.969513,1.000000 400.977112,1.000000 
	C400.977112,134.281128 400.977112,267.562256 400.977112,400.921692 
	C267.755890,400.921692 134.511703,400.921692 1.133759,400.921692 
	C1.133759,267.666748 1.133759,134.333389 1.127607,1.000022 
	C70.102402,1.000000 139.083359,1.000000 208.532150,1.462380 
	C209.000000,12.186625 209.008072,12.307513 199.506622,12.941425 
	C196.501709,13.141904 195.957047,14.563763 195.979660,17.080763 
	C196.042374,24.066807 195.987595,31.053905 195.516403,38.026443 
	C191.144455,38.012295 187.235367,38.012295 183.263824,38.012295 
	C183.044708,42.836945 182.867233,46.745045 182.693451,50.571686 
	C177.868378,50.571686 173.640381,50.571686 168.801056,50.571686 
	C168.801056,46.247169 168.801056,42.343327 168.801056,38.386795 
	C155.284241,38.386795 142.392761,38.386795 128.884979,38.386795 
	C128.884979,42.665279 128.884979,46.572514 128.884979,50.654533 
	C115.370415,50.654533 102.479546,50.654533 88.969719,50.654533 
	C88.969719,46.418663 88.969719,42.516144 88.969719,38.294231 
	C84.345757,38.067104 80.308731,37.868805 76.245445,37.669216 
	C76.038452,33.461391 75.862572,29.886017 75.693336,26.445656 
	C71.167023,26.445656 67.275635,26.445656 63.421841,26.445656 
	C63.421841,38.787811 63.421841,50.679947 63.421841,63.184872 
	C67.739944,63.184872 71.645103,63.184872 76.145828,63.184872 
	C76.145828,67.698151 76.145828,71.603638 76.145828,76.106285 
	C80.659332,76.106285 84.568565,76.106285 89.069054,76.106285 
	C89.069054,80.285835 89.069054,83.854797 89.069054,88.027634 
	C98.244743,88.027634 106.814621,88.027634 115.064163,88.027634 
	C115.526680,88.927353 115.794853,89.210258 115.802483,89.500015 
	C115.903137,93.325935 115.967140,97.152817 115.572113,100.986206 
	C103.155975,101.019684 103.155975,101.019684 102.482712,112.911194 
	C97.792206,112.955086 93.562012,112.955086 88.758636,112.955086 
	C88.758636,121.811722 88.758636,129.696533 88.758636,138.165390 
	C84.275909,138.165390 80.379288,138.165390 75.897156,138.165390 
	C75.897156,142.326706 75.897156,145.887939 75.897156,150.035202 
	C71.190544,150.035202 67.078682,150.035202 62.977894,149.570053 
	C62.988968,145.535263 62.988968,141.965607 62.988968,138.395813 
	C58.244083,138.395813 54.360615,138.395813 50.360645,138.395813 
	C50.360645,142.347382 50.360645,145.899139 50.360645,149.966751 
	C54.816757,149.966751 58.926014,149.966751 63.023674,150.433777 
	C63.012081,154.814667 63.012081,158.728546 63.012081,162.740601 
	C67.805077,162.953369 71.714142,163.126892 76.206764,163.326340 
	C76.206764,175.764252 76.206764,187.668365 76.206764,200.172760 
	C80.724930,200.172760 84.630943,200.172760 88.621353,200.172760 
	C88.621353,208.694824 88.621353,216.589508 88.621353,225.097961 
	C84.349335,225.097961 80.439102,225.097961 75.938309,225.097961 
	C75.938309,229.279770 75.938309,232.850006 75.938309,237.035202 
	C71.210854,237.035202 67.088837,237.035202 62.977894,236.570053 
	C62.988968,232.535263 62.988968,228.965607 62.988968,225.395813 
	C58.244083,225.395813 54.360615,225.395813 50.360645,225.395813 
	C50.360645,229.347382 50.360645,232.899139 50.360645,236.966751 
	C54.816963,236.966751 58.926117,236.966751 63.023643,237.437347 
	C63.012016,245.812729 63.012016,253.717514 63.012016,261.598633 
	C72.101265,261.598633 80.319221,261.598633 88.765579,261.598633 
	C88.940598,257.640961 89.098701,254.065567 89.263008,250.350067 
	C93.977173,250.350067 98.198845,250.350067 103.170090,250.350067 
	C103.170090,271.013672 103.170090,291.340515 103.170090,311.745605 
	C107.820862,311.953674 111.724068,312.128326 116.195145,312.328369 
	C116.195145,320.759705 116.195145,328.651886 116.195145,337.134155 
	C120.691299,337.134155 124.594170,337.134155 129.109589,337.134155 
	C129.109589,341.525635 129.109589,345.312469 129.060974,349.554626 
	C129.020645,353.997467 129.028915,357.984924 128.569885,361.981476 
	C124.204460,361.990540 120.306351,361.990540 116.364822,361.990540 
	C116.364822,370.729218 116.364822,378.594025 116.364822,386.964722 
	C120.822212,386.964722 124.927696,386.964722 129.022095,387.429871 
	C129.011017,391.464813 129.011017,395.034576 129.011017,398.604187 
	C134.090652,398.604187 138.306641,398.604187 142.638214,398.604187 
	C142.638214,394.652435 142.638214,391.100464 142.638214,387.033173 
	C137.845459,387.033173 133.405106,387.033173 128.976318,386.566162 
	C128.987915,382.200653 128.987915,378.302155 128.987915,373.824402 
	C134.075851,373.824402 138.299026,373.824402 142.890442,373.824402 
	C142.890442,369.458099 142.890442,365.679352 142.939026,361.446411 
	C142.955261,357.028015 142.922928,353.063843 142.926483,348.625977 
	C142.962387,336.251709 142.962387,324.351105 142.962387,311.848389 
	C137.958984,311.848389 133.724533,311.848389 129.057526,311.848389 
	C129.057526,290.815887 129.057526,270.394623 129.515747,249.984955 
	C134.283173,250.030014 138.592392,250.063507 142.944519,250.552521 
	C142.987442,254.584442 142.987442,258.160858 142.987442,262.098328 
	C147.692139,262.098328 151.797546,262.098328 155.945328,262.556030 
	C155.987701,266.927582 155.987701,270.841431 155.987701,275.098389 
	C165.379593,275.098389 174.141312,275.098389 182.945312,275.554016 
	C182.987610,279.593109 182.987610,283.176636 182.987610,287.000000 
	C190.067245,287.000000 196.513626,287.000000 202.960007,287.000000 
	C209.536865,287.000000 216.113724,287.000000 223.096954,287.000000 
	C223.096954,282.666321 223.096954,278.882355 223.557617,275.055420 
	C232.245239,275.012451 240.472183,275.012451 249.096954,275.012451 
	C249.096954,270.324860 249.096954,266.211639 249.555069,262.055481 
	C254.252579,262.012512 258.491974,262.012512 263.098389,262.012512 
	C263.098389,257.648529 263.098389,253.872757 263.553101,250.054626 
	C267.987122,249.998993 271.966492,249.985687 275.963684,250.442474 
	C275.981567,271.131134 275.981567,291.349701 275.981567,312.166870 
	C266.607635,312.166870 258.045807,312.166870 249.109589,312.166870 
	C249.109589,324.881165 249.109589,336.990234 249.061005,349.553650 
	C249.044739,353.972137 249.077072,357.936218 249.073700,362.367981 
	C249.037979,366.408447 249.037979,369.981262 249.037979,374.132385 
	C254.028763,374.132385 258.253357,374.132385 263.035217,374.132385 
	C263.035217,378.823273 263.035217,382.928253 262.566895,387.022095 
	C257.864014,387.010986 253.629440,387.010986 249.398010,387.010986 
	C249.398010,391.420868 249.398010,394.972626 249.398010,398.641205 
	C254.015488,398.641205 258.231323,398.641205 262.966766,398.641205 
	C262.966766,394.519623 262.966766,390.742218 263.433777,386.976349 
	C267.798462,386.987915 271.696167,386.987915 275.633850,386.987915 
	C275.633850,378.268127 275.633850,370.403229 275.633850,361.972443 
	C271.173462,361.972443 267.068115,361.972443 262.979248,361.513245 
	C262.960724,357.069275 262.925690,353.084473 262.926331,348.632019 
	C262.962006,344.582977 262.962006,341.001587 262.962006,336.827881 
	C267.730072,336.827881 271.629822,336.827881 276.116333,336.827881 
	C276.116333,332.328156 276.116333,328.425598 276.116333,323.939911 
	C280.611359,323.939911 284.514282,323.939911 288.667603,323.939911 
	C288.925751,319.659454 289.148712,315.962585 289.405792,311.699493 
	C294.202087,311.699493 298.427887,311.699493 303.206360,311.699493 
	C303.206360,290.889160 303.206360,270.689728 303.206360,249.900757 
	C311.993195,249.900757 320.217957,249.900757 328.964722,249.900757 
	C328.964722,245.194763 328.964722,241.080780 329.432312,236.977905 
	C333.801697,236.989014 337.703461,236.989014 341.602600,236.989014 
	C341.602600,232.574127 341.602600,229.024780 341.602600,225.359253 
	C337.317963,225.359253 333.434540,225.359253 329.033173,225.359253 
	C329.033173,229.481522 329.033173,233.258392 328.566162,237.023682 
	C324.187256,237.012085 320.275391,237.012085 316.278656,237.012085 
	C316.050262,232.540527 315.867584,228.963638 315.655396,224.809204 
	C311.254333,224.809204 307.352142,224.809204 303.377930,224.809204 
	C303.377930,216.295975 303.377930,208.406448 303.377930,199.905853 
	C307.643402,199.905853 311.547791,199.905853 316.058136,199.905853 
	C316.058136,182.854111 316.058136,166.415695 316.519348,149.983643 
	C317.812927,149.993225 318.645233,149.998505 319.477570,149.999313 
	C328.220032,150.007828 328.084412,149.990524 329.160492,141.460175 
	C329.321564,140.182983 331.268250,138.769547 332.705505,138.124207 
	C333.953461,137.563873 335.665070,137.863510 337.144958,138.026505 
	C340.789795,138.427933 342.121338,137.029190 342.070343,133.257156 
	C341.888092,119.775887 341.894073,106.289299 342.067657,92.807800 
	C342.115265,89.112953 340.926727,87.885765 337.210510,87.931625 
	C323.229523,88.104149 309.239136,87.766563 295.265076,88.122223 
	C290.128693,88.252953 288.152039,86.682503 289.000763,81.672104 
	C289.814240,76.870041 287.477936,75.383118 283.080170,75.984070 
	C282.263153,76.095718 281.408417,75.918205 280.587006,76.012665 
	C277.156738,76.407166 275.868713,75.019562 275.938965,71.489639 
	C276.124451,62.171257 275.779266,52.839188 276.096069,43.527905 
	C276.247345,39.080944 274.813751,37.732269 270.428925,37.908295 
	C262.607178,38.222309 262.803375,38.637688 263.061707,30.848753 
	C263.182861,27.195671 262.017181,25.896248 258.253296,25.918087 
	C249.385895,25.969538 249.331360,25.795639 249.030502,17.169748 
	C248.945740,14.739282 248.659775,13.168217 245.581528,12.941848 
	C235.990768,12.236556 236.000000,12.111018 236.000000,2.498193 
	C236.000000,1.998795 236.000000,1.499398 236.000000,1.000000 
z"/>
<path fill="#1C1C1C" opacity="1.000000" stroke="none" 
	d="
M235.531342,1.000000 
	C236.000000,1.499398 236.000000,1.998795 236.000000,2.498193 
	C236.000000,12.111018 235.990768,12.236556 245.581528,12.941848 
	C248.659775,13.168217 248.945740,14.739282 249.030502,17.169748 
	C249.331360,25.795639 249.385895,25.969538 258.253296,25.918087 
	C262.017181,25.896248 263.182861,27.195671 263.061707,30.848753 
	C262.803375,38.637688 262.607178,38.222309 270.428925,37.908295 
	C274.813751,37.732269 276.247345,39.080944 276.096069,43.527905 
	C275.779266,52.839188 276.124451,62.171257 275.938965,71.489639 
	C275.868713,75.019562 277.156738,76.407166 280.587006,76.012665 
	C281.408417,75.918205 282.263153,76.095718 283.080170,75.984070 
	C287.477936,75.383118 289.814240,76.870041 289.000763,81.672104 
	C288.152039,86.682503 290.128693,88.252953 295.265076,88.122223 
	C309.239136,87.766563 323.229523,88.104149 337.210510,87.931625 
	C340.926727,87.885765 342.115265,89.112953 342.067657,92.807800 
	C341.894073,106.289299 341.888092,119.775887 342.070343,133.257156 
	C342.121338,137.029190 340.789795,138.427933 337.144958,138.026505 
	C335.665070,137.863510 333.953461,137.563873 332.705505,138.124207 
	C331.268250,138.769547 329.321564,140.182983 329.160492,141.460175 
	C328.084412,149.990524 328.220032,150.007828 319.477570,149.999313 
	C318.645233,149.998505 317.812927,149.993225 316.485229,150.028320 
	C315.989868,150.066635 315.878876,150.081451 315.916748,149.612701 
	C315.873566,135.893448 317.777466,138.260468 304.894196,138.011108 
	C304.239838,137.998444 303.584229,138.048889 302.468384,138.048737 
	C299.678802,138.018341 297.317810,137.758163 295.027985,138.052048 
	C290.224609,138.668533 288.635590,136.843216 288.896881,131.999588 
	C289.271973,125.045502 288.954437,124.727600 281.998688,125.103249 
	C277.152710,125.364960 275.210724,123.755913 276.000549,118.977478 
	C276.799927,114.141205 274.726532,112.242966 269.958282,112.978104 
	C268.983612,113.128365 267.956451,112.909859 266.969177,113.012291 
	C263.890778,113.331680 263.003235,111.905975 262.939514,108.945381 
	C262.767029,100.932472 262.644073,100.935265 254.436050,100.999939 
	C253.937042,101.003868 253.432419,101.051941 252.939865,100.996124 
	C249.832336,100.643974 248.905975,102.147919 248.957932,105.088173 
	C249.075470,111.738869 248.949280,118.393883 248.461548,125.026718 
	C239.690323,125.043152 231.379807,125.079994 223.048828,124.647446 
	C223.021851,123.845192 223.011276,123.512367 223.009354,123.179489 
	C222.954285,113.629608 222.949020,113.518944 232.336777,113.060402 
	C235.196960,112.920685 236.091293,111.833633 236.031052,109.134926 
	C235.912201,103.811050 235.738144,98.465775 236.081055,93.161301 
	C236.360168,88.843613 234.639771,87.809395 230.626877,87.919006 
	C222.144592,88.150711 222.885101,88.640381 223.058167,80.611115 
	C223.130692,77.245918 222.190964,75.532539 218.579208,75.979614 
	C217.431702,76.121658 216.229645,75.854362 215.090256,76.025452 
	C210.370651,76.734177 208.624878,74.981575 208.894562,70.056412 
	C209.278473,63.045013 208.968842,63.027954 202.041367,63.000137 
	C201.542007,62.998131 201.035599,62.944347 200.544403,63.007465 
	C197.099014,63.450195 195.823212,62.044739 195.936005,58.512360 
	C196.153702,51.694927 195.986740,44.865211 195.979263,38.040588 
	C195.987595,31.053905 196.042374,24.066807 195.979660,17.080763 
	C195.957047,14.563763 196.501709,13.141904 199.506622,12.941425 
	C209.008072,12.307513 209.000000,12.186625 209.000000,1.462380 
	C217.687561,1.000000 226.375137,1.000000 235.531342,1.000000 
z"/>
<path fill="#624C0C" opacity="1.000000" stroke="none" 
	d="
M62.966820,237.035202 
	C67.088837,237.035202 71.210854,237.035202 75.938309,237.035202 
	C75.938309,232.850006 75.938309,229.279770 75.938309,225.097961 
	C80.439102,225.097961 84.349335,225.097961 88.621353,225.097961 
	C88.621353,216.589508 88.621353,208.694824 88.621353,200.172760 
	C84.630943,200.172760 80.724930,200.172760 76.206764,200.172760 
	C76.206764,187.668365 76.206764,175.764252 76.206764,163.326340 
	C71.714142,163.126892 67.805077,162.953369 63.012081,162.740601 
	C63.012081,158.728546 63.012081,154.814667 63.006340,150.450653 
	C63.000595,150.000534 62.966820,150.035202 62.966820,150.035202 
	C67.078682,150.035202 71.190544,150.035202 75.897156,150.035202 
	C75.897156,145.887939 75.897156,142.326706 75.897156,138.165390 
	C80.379288,138.165390 84.275909,138.165390 88.758636,138.165390 
	C88.758636,129.696533 88.758636,121.811722 88.758636,112.955086 
	C93.562012,112.955086 97.792206,112.955086 102.950928,112.954529 
	C106.195023,112.969460 108.536636,113.212433 110.820549,112.951126 
	C115.038300,112.468575 116.229424,114.239433 116.083786,118.294281 
	C115.843987,124.970764 116.070038,124.978668 122.734344,125.000275 
	C123.726799,125.003487 124.940956,124.649826 125.662720,125.094307 
	C126.928658,125.873886 128.528107,126.978004 128.857117,128.240784 
	C129.653473,131.297302 128.704544,135.886200 130.494003,137.322968 
	C132.550629,138.974228 136.798981,137.895096 140.095261,138.003479 
	C141.086899,138.036072 142.078384,138.073807 143.041473,138.562820 
	C143.013000,142.596710 143.013000,146.176941 143.013000,150.266968 
	C137.914734,150.266968 133.533936,150.266968 129.160828,150.266968 
	C129.160828,179.519775 129.160828,208.239792 129.098816,237.421463 
	C129.043716,241.913193 129.050613,245.943298 129.057526,249.973389 
	C129.057526,270.394623 129.057526,290.815887 129.057526,311.848389 
	C133.724533,311.848389 137.958984,311.848389 142.962387,311.848389 
	C142.962387,324.351105 142.962387,336.251709 142.471588,348.586853 
	C137.690384,349.047394 133.399979,349.073334 129.109589,349.099304 
	C129.109589,345.312469 129.109589,341.525635 129.109589,337.134155 
	C124.594170,337.134155 120.691299,337.134155 116.195145,337.134155 
	C116.195145,328.651886 116.195145,320.759705 116.195145,312.328369 
	C111.724068,312.128326 107.820862,311.953674 103.170090,311.745605 
	C103.170090,291.340515 103.170090,271.013672 103.170090,250.350067 
	C98.198845,250.350067 93.977173,250.350067 89.263008,250.350067 
	C89.098701,254.065567 88.940598,257.640961 88.765579,261.598633 
	C80.319221,261.598633 72.101265,261.598633 63.012016,261.598633 
	C63.012016,253.717514 63.012016,245.812729 63.006306,237.454254 
	C63.000595,237.000534 62.966820,237.035202 62.966820,237.035202 
z"/>
<path fill="#624C0C" opacity="1.000000" stroke="none" 
	d="
M195.516403,38.026443 
	C195.986740,44.865211 196.153702,51.694927 195.936005,58.512360 
	C195.823212,62.044739 197.099014,63.450195 200.544403,63.007465 
	C201.035599,62.944347 201.542007,62.998131 202.041367,63.000137 
	C208.968842,63.027954 209.278473,63.045013 208.894562,70.056412 
	C208.624878,74.981575 210.370651,76.734177 215.090256,76.025452 
	C216.229645,75.854362 217.431702,76.121658 218.579208,75.979614 
	C222.190964,75.532539 223.130692,77.245918 223.058167,80.611115 
	C222.885101,88.640381 222.144592,88.150711 230.626877,87.919006 
	C234.639771,87.809395 236.360168,88.843613 236.081055,93.161301 
	C235.738144,98.465775 235.912201,103.811050 236.031052,109.134926 
	C236.091293,111.833633 235.196960,112.920685 232.336777,113.060402 
	C222.949020,113.518944 222.954285,113.629608 223.009354,123.179489 
	C223.011276,123.512367 223.021851,123.845192 223.040649,124.612518 
	C223.052917,125.046982 223.123016,125.033745 222.645386,125.023987 
	C209.070831,125.020729 195.973892,125.027229 182.913361,125.039322 
	C182.949753,125.044914 182.932175,125.116432 182.952209,124.647034 
	C182.981476,122.851624 182.997604,121.525620 182.998810,120.199593 
	C183.005356,113.002968 183.004089,113.001282 175.734756,113.000343 
	C161.645081,112.998528 147.555359,112.977890 133.465805,113.017502 
	C130.933014,113.024620 129.085892,112.929451 128.926147,109.468826 
	C128.535126,100.998215 128.363754,101.006889 120.018448,100.999168 
	C118.692398,100.997940 117.366356,100.986298 116.040314,100.979462 
	C115.967140,97.152817 115.903137,93.325935 115.802483,89.500015 
	C115.794853,89.210258 115.526680,88.927353 115.064163,88.027634 
	C106.814621,88.027634 98.244743,88.027634 89.069054,88.027634 
	C89.069054,83.854797 89.069054,80.285835 89.069054,76.106285 
	C84.568565,76.106285 80.659332,76.106285 76.145828,76.106285 
	C76.145828,71.603638 76.145828,67.698151 76.145828,63.184872 
	C71.645103,63.184872 67.739944,63.184872 63.421841,63.184872 
	C63.421841,50.679947 63.421841,38.787811 63.421841,26.445656 
	C67.275635,26.445656 71.167023,26.445656 75.693336,26.445656 
	C75.862572,29.886017 76.038452,33.461391 76.245445,37.669216 
	C80.308731,37.868805 84.345757,38.067104 88.969719,38.294231 
	C88.969719,42.516144 88.969719,46.418663 88.969719,50.654533 
	C102.479546,50.654533 115.370415,50.654533 128.884979,50.654533 
	C128.884979,46.572514 128.884979,42.665279 128.884979,38.386795 
	C142.392761,38.386795 155.284241,38.386795 168.801056,38.386795 
	C168.801056,42.343327 168.801056,46.247169 168.801056,50.571686 
	C173.640381,50.571686 177.868378,50.571686 182.693451,50.571686 
	C182.867233,46.745045 183.044708,42.836945 183.263824,38.012295 
	C187.235367,38.012295 191.144455,38.012295 195.516403,38.026443 
z"/>
<path fill="#624C0C" opacity="1.000000" stroke="none" 
	d="
M248.922211,125.047134 
	C248.949280,118.393883 249.075470,111.738869 248.957932,105.088173 
	C248.905975,102.147919 249.832336,100.643974 252.939865,100.996124 
	C253.432419,101.051941 253.937042,101.003868 254.436050,100.999939 
	C262.644073,100.935265 262.767029,100.932472 262.939514,108.945381 
	C263.003235,111.905975 263.890778,113.331680 266.969177,113.012291 
	C267.956451,112.909859 268.983612,113.128365 269.958282,112.978104 
	C274.726532,112.242966 276.799927,114.141205 276.000549,118.977478 
	C275.210724,123.755913 277.152710,125.364960 281.998688,125.103249 
	C288.954437,124.727600 289.271973,125.045502 288.896881,131.999588 
	C288.635590,136.843216 290.224609,138.668533 295.027985,138.052048 
	C297.317810,137.758163 299.678802,138.018341 302.491821,138.503662 
	C302.984100,140.797180 303.185638,142.638824 302.961609,144.427139 
	C302.424377,148.715408 303.977386,150.581757 308.452271,150.055832 
	C310.893066,149.768951 313.401154,150.054214 315.878876,150.081451 
	C315.878876,150.081451 315.989868,150.066635 316.023987,150.021957 
	C316.058136,166.415695 316.058136,182.854111 316.058136,199.905853 
	C311.547791,199.905853 307.643402,199.905853 303.377930,199.905853 
	C303.377930,208.406448 303.377930,216.295975 303.377930,224.809204 
	C307.352142,224.809204 311.254333,224.809204 315.655396,224.809204 
	C315.867584,228.963638 316.050262,232.540527 316.278656,237.012085 
	C320.275391,237.012085 324.187256,237.012085 328.549255,237.006348 
	C328.999390,237.000595 328.964722,236.966812 328.964722,236.966812 
	C328.964722,241.080780 328.964722,245.194763 328.964722,249.900757 
	C320.217957,249.900757 311.993195,249.900757 303.206360,249.900757 
	C303.206360,270.689728 303.206360,290.889160 303.206360,311.699493 
	C298.427887,311.699493 294.202087,311.699493 289.405792,311.699493 
	C289.148712,315.962585 288.925751,319.659454 288.667603,323.939911 
	C284.514282,323.939911 280.611359,323.939911 276.116333,323.939911 
	C276.116333,328.425598 276.116333,332.328156 276.116333,336.827881 
	C271.629822,336.827881 267.730072,336.827881 262.962006,336.827881 
	C262.962006,341.001587 262.962006,344.582977 262.471436,348.592896 
	C257.690430,349.047394 253.400009,349.073334 249.109589,349.099304 
	C249.109589,336.990234 249.109589,324.881165 249.109589,312.166870 
	C258.045807,312.166870 266.607635,312.166870 275.981567,312.166870 
	C275.981567,291.349701 275.981567,271.131134 275.985657,249.980591 
	C275.939545,245.019104 275.889343,240.989578 275.905762,236.498154 
	C275.972351,207.478165 275.972351,178.920074 275.972351,149.828003 
	C271.349884,149.828003 267.289276,149.828003 262.891815,149.828003 
	C262.891815,145.690384 262.891815,142.088409 262.891815,137.958496 
	C258.156342,137.958496 253.754791,137.958496 248.922211,137.958496 
	C248.922211,133.302750 248.922211,129.174942 248.922211,125.047134 
z"/>
<path fill="#1C1C1C" opacity="1.000000" stroke="none" 
	d="
M115.572113,100.986206 
	C117.366356,100.986298 118.692398,100.997940 120.018448,100.999168 
	C128.363754,101.006889 128.535126,100.998215 128.926147,109.468826 
	C129.085892,112.929451 130.933014,113.024620 133.465805,113.017502 
	C147.555359,112.977890 161.645081,112.998528 175.734756,113.000343 
	C183.004089,113.001282 183.005356,113.002968 182.998810,120.199593 
	C182.997604,121.525620 182.981476,122.851624 182.489563,124.596130 
	C173.443939,125.014610 164.880997,125.014610 155.873077,125.014610 
	C155.873077,129.604538 155.873077,133.668045 155.873077,138.109177 
	C151.304260,138.109177 147.187088,138.109177 143.069931,138.109177 
	C142.078384,138.073807 141.086899,138.036072 140.095261,138.003479 
	C136.798981,137.895096 132.550629,138.974228 130.494003,137.322968 
	C128.704544,135.886200 129.653473,131.297302 128.857117,128.240784 
	C128.528107,126.978004 126.928658,125.873886 125.662720,125.094307 
	C124.940956,124.649826 123.726799,125.003487 122.734344,125.000275 
	C116.070038,124.978668 115.843987,124.970764 116.083786,118.294281 
	C116.229424,114.239433 115.038300,112.468575 110.820549,112.951126 
	C108.536636,113.212433 106.195023,112.969460 103.411224,112.910637 
	C103.155975,101.019684 103.155975,101.019684 115.572113,100.986206 
z"/>
<path fill="#624C0C" opacity="1.000000" stroke="none" 
	d="
M129.033188,386.964722 
	C124.927696,386.964722 120.822212,386.964722 116.364822,386.964722 
	C116.364822,378.594025 116.364822,370.729218 116.364822,361.990540 
	C120.306351,361.990540 124.204460,361.990540 129.031708,361.992737 
	C134.270721,361.963531 138.580582,361.932068 142.890442,361.900635 
	C142.890442,365.679352 142.890442,369.458099 142.890442,373.824402 
	C138.299026,373.824402 134.075851,373.824402 128.987915,373.824402 
	C128.987915,378.302155 128.987915,382.200653 128.993652,386.549255 
	C128.999405,386.999390 129.033188,386.964722 129.033188,386.964722 
z"/>
<path fill="#624C0C" opacity="1.000000" stroke="none" 
	d="
M262.962769,361.972443 
	C267.068115,361.972443 271.173462,361.972443 275.633850,361.972443 
	C275.633850,370.403229 275.633850,378.268127 275.633850,386.987915 
	C271.696167,386.987915 267.798462,386.987915 263.450684,386.993683 
	C263.000549,386.999451 263.035217,387.033234 263.035217,387.033234 
	C263.035217,382.928253 263.035217,378.823273 263.035217,374.132385 
	C258.253357,374.132385 254.028763,374.132385 249.037979,374.132385 
	C249.037979,369.981262 249.037979,366.408447 249.528992,362.407104 
	C254.334244,361.976562 258.648499,361.974518 262.962769,361.972443 
z"/>
<path fill="#D2AD95" opacity="1.000000" stroke="none" 
	d="
M223.096954,275.098419 
	C223.096954,278.882355 223.096954,282.666321 223.096954,287.000000 
	C216.113724,287.000000 209.536865,287.000000 202.960007,287.000000 
	C196.513626,287.000000 190.067245,287.000000 182.987610,287.000000 
	C182.987610,283.176636 182.987610,279.593109 183.030701,275.467896 
	C183.073792,274.926208 183.244797,274.754272 183.687469,274.832336 
	C197.004868,274.858673 209.879578,274.806915 222.840027,274.840912 
	C222.925751,274.926666 223.096954,275.098419 223.096954,275.098419 
z"/>
<path fill="#D2AD95" opacity="1.000000" stroke="none" 
	d="
M182.988403,275.012299 
	C174.141312,275.098389 165.379593,275.098389 155.987701,275.098389 
	C155.987701,270.841431 155.987701,266.927582 156.030823,262.470093 
	C156.073929,261.926453 156.245148,261.754822 156.688690,261.832092 
	C163.223541,261.939575 169.314819,261.983368 175.406174,261.996552 
	C182.985367,262.012970 182.970383,262.002167 183.010696,269.336609 
	C183.020615,271.142883 183.163193,272.948395 183.244797,274.754272 
	C183.244797,274.754272 183.073792,274.926208 182.988403,275.012299 
z"/>
<path fill="#D2AD95" opacity="1.000000" stroke="none" 
	d="
M249.096954,262.098419 
	C249.096954,266.211639 249.096954,270.324860 249.096954,275.012451 
	C240.472183,275.012451 232.245239,275.012451 223.557617,275.055420 
	C223.096954,275.098419 222.925751,274.926666 222.917816,274.401978 
	C222.940170,271.573181 223.187943,269.246552 222.952576,266.969910 
	C222.543457,263.012512 224.165390,261.811951 228.027618,261.922180 
	C234.929291,262.119110 241.844666,261.837006 248.840027,261.840912 
	C248.925751,261.926666 249.096954,262.098419 249.096954,262.098419 
z"/>
<path fill="#DAEC5E" opacity="1.000000" stroke="none" 
	d="
M262.979248,361.513245 
	C258.648499,361.974518 254.334244,361.976562 249.564697,361.939453 
	C249.077072,357.936218 249.044739,353.972137 249.061005,349.553650 
	C253.400009,349.073334 257.690430,349.047394 262.435730,349.060547 
	C262.925690,353.084473 262.960724,357.069275 262.979248,361.513245 
z"/>
<path fill="#DAEC5E" opacity="1.000000" stroke="none" 
	d="
M142.939026,361.446411 
	C138.580582,361.932068 134.270721,361.963531 129.499023,361.983704 
	C129.028915,357.984924 129.020645,353.997467 129.060974,349.554626 
	C133.399979,349.073334 137.690384,349.047394 142.435684,349.060547 
	C142.922928,353.063843 142.955261,357.028015 142.939026,361.446411 
z"/>
<path fill="#D2AD95" opacity="1.000000" stroke="none" 
	d="
M129.515747,249.984955 
	C129.050613,245.943298 129.043716,241.913193 129.553757,237.432800 
	C132.858856,236.988831 135.657806,237.151962 138.432388,236.961136 
	C141.768433,236.731705 143.287857,237.876923 143.051331,241.409317 
	C142.866196,244.174255 143.162430,246.971420 143.159058,249.840012 
	C143.073334,249.925751 142.901611,250.097000 142.901611,250.097000 
	C138.592392,250.063507 134.283173,250.030014 129.515747,249.984955 
z"/>
<path fill="#D2AD95" opacity="1.000000" stroke="none" 
	d="
M275.839172,236.960052 
	C275.889343,240.989578 275.939545,245.019104 275.967773,249.510513 
	C271.966492,249.985687 267.987122,249.998993 263.466980,249.969238 
	C262.926208,249.926208 262.754303,249.755203 262.832092,249.316284 
	C263.250275,237.101212 263.250275,237.101227 275.347198,236.972000 
	C275.511230,236.970245 275.675171,236.964127 275.839172,236.960052 
z"/>
<path fill="#624C0C" opacity="1.000000" stroke="none" 
	d="
M128.982071,387.016296 
	C133.405106,387.033173 137.845459,387.033173 142.638214,387.033173 
	C142.638214,391.100464 142.638214,394.652435 142.638214,398.604187 
	C138.306641,398.604187 134.090652,398.604187 129.011017,398.604187 
	C129.011017,395.034576 129.011017,391.464813 129.022095,387.429871 
	C129.033188,386.964722 128.999405,386.999390 128.982071,387.016296 
z"/>
<path fill="#624C0C" opacity="1.000000" stroke="none" 
	d="
M262.983643,386.982117 
	C262.966766,390.742218 262.966766,394.519623 262.966766,398.641205 
	C258.231323,398.641205 254.015488,398.641205 249.398010,398.641205 
	C249.398010,394.972626 249.398010,391.420868 249.398010,387.010986 
	C253.629440,387.010986 257.864014,387.010986 262.566895,387.022095 
	C263.035217,387.033234 263.000549,386.999451 262.983643,386.982117 
z"/>
<path fill="#D2AD95" opacity="1.000000" stroke="none" 
	d="
M263.012299,250.011597 
	C263.098389,253.872757 263.098389,257.648529 263.098389,262.012512 
	C258.491974,262.012512 254.252579,262.012512 249.555069,262.055481 
	C249.096954,262.098419 248.925751,261.926666 248.917587,261.404541 
	C248.940155,258.756500 249.136215,256.617096 248.963882,254.507782 
	C248.687241,251.121780 249.984253,249.744766 253.448349,249.946991 
	C256.536072,250.127243 259.651245,249.837509 262.754303,249.755188 
	C262.754303,249.755203 262.926208,249.926208 263.012299,250.011597 
z"/>
<path fill="#D2AD95" opacity="1.000000" stroke="none" 
	d="
M155.988434,262.012390 
	C151.797546,262.098328 147.692139,262.098328 142.987442,262.098328 
	C142.987442,258.160858 142.987442,254.584442 142.944519,250.552521 
	C142.901611,250.097000 143.073334,249.925751 143.597992,249.917816 
	C155.448471,250.238403 155.448242,250.238419 156.162521,261.271729 
	C156.173019,261.433868 156.216858,261.593842 156.245148,261.754822 
	C156.245148,261.754822 156.073929,261.926453 155.988434,262.012390 
z"/>
<path fill="#624C0C" opacity="1.000000" stroke="none" 
	d="
M329.016296,237.017929 
	C329.033173,233.258392 329.033173,229.481522 329.033173,225.359253 
	C333.434540,225.359253 337.317963,225.359253 341.602600,225.359253 
	C341.602600,229.024780 341.602600,232.574127 341.602600,236.989014 
	C337.703461,236.989014 333.801697,236.989014 329.432312,236.977905 
	C328.964722,236.966812 328.999390,237.000595 329.016296,237.017929 
z"/>
<path fill="#624C0C" opacity="1.000000" stroke="none" 
	d="
M63.017933,236.983643 
	C58.926117,236.966751 54.816963,236.966751 50.360645,236.966751 
	C50.360645,232.899139 50.360645,229.347382 50.360645,225.395813 
	C54.360615,225.395813 58.244083,225.395813 62.988968,225.395813 
	C62.988968,228.965607 62.988968,232.535263 62.977894,236.570053 
	C62.966820,237.035202 63.000595,237.000534 63.017933,236.983643 
z"/>
<path fill="#624C0C" opacity="1.000000" stroke="none" 
	d="
M63.017933,149.983643 
	C58.926014,149.966751 54.816757,149.966751 50.360645,149.966751 
	C50.360645,145.899139 50.360645,142.347382 50.360645,138.395813 
	C54.360615,138.395813 58.244083,138.395813 62.988968,138.395813 
	C62.988968,141.965607 62.988968,145.535263 62.977894,149.570053 
	C62.966820,150.035202 63.000595,150.000534 63.017933,149.983643 
z"/>
<path fill="#E2CBBB" opacity="1.000000" stroke="none" 
	d="
M156.688690,261.832092 
	C156.216858,261.593842 156.173019,261.433868 156.162521,261.271729 
	C155.448242,250.238419 155.448471,250.238403 143.683716,249.832062 
	C143.162430,246.971420 142.866196,244.174255 143.051331,241.409317 
	C143.287857,237.876923 141.768433,236.731705 138.432388,236.961136 
	C135.657806,237.151962 132.858856,236.988831 129.615768,236.971161 
	C129.160828,208.239792 129.160828,179.519775 129.160828,150.266968 
	C133.533936,150.266968 137.914734,150.266968 143.013000,150.266968 
	C143.013000,146.176941 143.013000,142.596710 143.041473,138.562820 
	C147.187088,138.109177 151.304260,138.109177 155.873077,138.109177 
	C155.873077,133.668045 155.873077,129.604538 155.873077,125.014610 
	C164.880997,125.014610 173.443939,125.014610 182.469513,125.065521 
	C182.932175,125.116432 182.949753,125.044914 182.967148,125.500305 
	C182.984543,129.882126 182.984543,133.808548 182.984543,137.705338 
	C196.639938,137.705338 209.676437,137.705338 223.123016,137.705338 
	C223.123016,133.287415 223.123016,129.160583 223.123016,125.033745 
	C223.123016,125.033745 223.052917,125.046982 223.061096,125.081909 
	C231.379807,125.079994 239.690323,125.043152 248.461533,125.026718 
	C248.922211,129.174942 248.922211,133.302750 248.922211,137.958496 
	C253.754791,137.958496 258.156342,137.958496 262.891815,137.958496 
	C262.891815,142.088409 262.891815,145.690384 262.891815,149.828003 
	C267.289276,149.828003 271.349884,149.828003 275.972351,149.828003 
	C275.972351,178.920074 275.972351,207.478165 275.905762,236.498154 
	C275.675171,236.964127 275.511230,236.970245 275.347198,236.972000 
	C263.250275,237.101227 263.250275,237.101212 262.832092,249.316269 
	C259.651245,249.837509 256.536072,250.127243 253.448349,249.946991 
	C249.984253,249.744766 248.687241,251.121780 248.963882,254.507782 
	C249.136215,256.617096 248.940155,258.756500 248.831863,261.318787 
	C241.844666,261.837006 234.929291,262.119110 228.027618,261.922180 
	C224.165390,261.811951 222.543457,263.012512 222.952576,266.969910 
	C223.187943,269.246552 222.940170,271.573181 222.832077,274.316223 
	C209.879578,274.806915 197.004868,274.858673 183.687469,274.832336 
	C183.163193,272.948395 183.020615,271.142883 183.010696,269.336609 
	C182.970383,262.002167 182.985367,262.012970 175.406174,261.996552 
	C169.314819,261.983368 163.223541,261.939575 156.688690,261.832092 
M235.828873,228.168091 
	C231.780060,227.638565 227.731247,227.109039 223.415955,226.544662 
	C223.415955,229.944519 223.415955,232.297623 223.415955,234.980057 
	C227.130219,234.980057 230.442627,235.097214 233.734604,234.889984 
	C234.471390,234.843613 235.136612,233.660446 235.952209,232.205292 
	C235.913071,231.136642 235.873932,230.067993 235.828873,228.168091 
M195.953018,187.087814 
	C195.953018,183.201599 195.953018,179.315384 195.953018,175.151901 
	C186.439041,175.151901 177.714188,175.151901 168.062195,175.015457 
	C159.809448,175.015457 151.556702,175.015457 143.264008,175.015457 
	C143.264008,183.586182 143.264008,191.638931 143.264008,200.115952 
	C147.586670,200.115952 151.660980,200.115952 156.137268,200.115952 
	C156.137268,204.271179 156.137268,208.012024 156.137268,211.720306 
	C165.289780,211.720306 174.009323,211.720306 183.151642,211.720306 
	C183.151642,207.712128 183.151642,203.971161 183.151642,199.833221 
	C187.642960,199.833221 191.718048,199.833221 195.848068,199.833221 
	C195.848068,195.608307 195.848068,191.809464 195.953018,187.087814 
M262.953033,187.087814 
	C262.953033,183.201599 262.953033,179.315384 262.953033,175.151901 
	C253.439011,175.151901 244.714172,175.151901 235.062195,175.015457 
	C226.476746,175.015457 217.891296,175.015457 209.263550,175.015457 
	C209.263550,183.584351 209.263550,191.636932 209.263550,200.113831 
	C213.919373,200.113831 218.326202,200.113831 223.135681,200.113831 
	C223.135681,204.269089 223.135681,208.010025 223.135681,211.720154 
	C231.955429,211.720154 240.342194,211.720154 249.152313,211.720154 
	C249.152313,207.713486 249.152313,203.971664 249.152313,199.833771 
	C253.977768,199.833771 258.384796,199.833771 262.848083,199.833771 
	C262.848083,195.608246 262.848083,191.809448 262.953033,187.087814 
M198.786194,237.013107 
	C197.874847,237.696152 196.235458,238.321777 196.176285,239.072052 
	C195.897583,242.605789 196.052139,246.173706 196.052139,249.648254 
	C205.447311,249.648254 213.988678,249.648254 222.540985,249.648254 
	C222.540985,245.278198 222.540985,241.268082 222.540985,237.002396 
	C214.634262,237.002396 207.184891,237.002396 198.786194,237.013107 
z"/>
<path fill="#3B3011" opacity="1.000000" stroke="none" 
	d="
M315.916748,149.612701 
	C313.401154,150.054214 310.893066,149.768951 308.452271,150.055832 
	C303.977386,150.581757 302.424377,148.715408 302.961609,144.427139 
	C303.185638,142.638824 302.984100,140.797180 302.952637,138.524872 
	C303.584229,138.048889 304.239838,137.998444 304.894196,138.011108 
	C317.777466,138.260468 315.873566,135.893448 315.916748,149.612701 
z"/>
<path fill="#1C1C1C" opacity="1.000000" stroke="none" 
	d="
M222.645386,125.023987 
	C223.123016,129.160583 223.123016,133.287415 223.123016,137.705338 
	C209.676437,137.705338 196.639938,137.705338 182.984543,137.705338 
	C182.984543,133.808548 182.984543,129.882126 182.930756,125.494720 
	C195.973892,125.027229 209.070831,125.020729 222.645386,125.023987 
z"/>
<path fill="#000000" opacity="1.000000" stroke="none" 
	d="
M262.848083,188.010635 
	C262.848083,191.809448 262.848083,195.608246 262.848083,199.833771 
	C258.384796,199.833771 253.977768,199.833771 249.152313,199.833771 
	C249.152313,203.971664 249.152313,207.713486 249.152313,211.720154 
	C240.342194,211.720154 231.955429,211.720154 223.135681,211.720154 
	C223.135681,208.010025 223.135681,204.269089 223.135681,200.113831 
	C218.326202,200.113831 213.919373,200.113831 209.263550,200.113831 
	C209.263550,191.636932 209.263550,183.584351 209.263550,175.015457 
	C217.891296,175.015457 226.476746,175.015457 235.530487,175.536835 
	C235.998764,179.966217 235.998764,183.874207 235.998764,188.010635 
	C245.345596,188.010635 254.096832,188.010635 262.848083,188.010635 
z"/>
<path fill="#000000" opacity="1.000000" stroke="none" 
	d="
M195.848068,188.010620 
	C195.848068,191.809464 195.848068,195.608307 195.848068,199.833221 
	C191.718048,199.833221 187.642960,199.833221 183.151642,199.833221 
	C183.151642,203.971161 183.151642,207.712128 183.151642,211.720306 
	C174.009323,211.720306 165.289780,211.720306 156.137268,211.720306 
	C156.137268,208.012024 156.137268,204.271179 156.137268,200.115952 
	C151.660980,200.115952 147.586670,200.115952 143.264008,200.115952 
	C143.264008,191.638931 143.264008,183.586182 143.264008,175.015457 
	C151.556702,175.015457 159.809448,175.015457 168.530487,175.536835 
	C168.998764,179.966217 168.998764,183.874207 168.998764,188.010620 
	C178.345581,188.010620 187.096832,188.010620 195.848068,188.010620 
z"/>
<path fill="#998343" opacity="1.000000" stroke="none" 
	d="
M199.260864,237.007751 
	C207.184891,237.002396 214.634262,237.002396 222.540985,237.002396 
	C222.540985,241.268082 222.540985,245.278198 222.540985,249.648254 
	C213.988678,249.648254 205.447311,249.648254 196.052139,249.648254 
	C196.052139,246.173706 195.897583,242.605789 196.176285,239.072052 
	C196.235458,238.321777 197.874847,237.696152 199.260864,237.007751 
z"/>
<path fill="#FFFD4D" opacity="1.000000" stroke="none" 
	d="
M262.900574,187.549225 
	C254.096832,188.010635 245.345596,188.010635 235.998764,188.010635 
	C235.998764,183.874207 235.998764,179.966217 235.994049,175.605072 
	C244.714172,175.151901 253.439011,175.151901 262.953033,175.151901 
	C262.953033,179.315384 262.953033,183.201599 262.900574,187.549225 
z"/>
<path fill="#FFFD4D" opacity="1.000000" stroke="none" 
	d="
M195.900543,187.549225 
	C187.096832,188.010620 178.345581,188.010620 168.998764,188.010620 
	C168.998764,183.874207 168.998764,179.966217 168.994049,175.605072 
	C177.714188,175.151901 186.439041,175.151901 195.953018,175.151901 
	C195.953018,179.315384 195.953018,183.201599 195.900543,187.549225 
z"/>
<path fill="#998343" opacity="1.000000" stroke="none" 
	d="
M235.834778,233.000641 
	C235.136612,233.660446 234.471390,234.843613 233.734604,234.889984 
	C230.442627,235.097214 227.130219,234.980057 223.415955,234.980057 
	C223.415955,232.297623 223.415955,229.944519 223.415955,226.544662 
	C227.731247,227.109039 231.780060,227.638565 235.394196,228.583923 
	C233.171173,229.015045 231.348419,228.830399 229.609085,229.130066 
	C228.741501,229.279541 228.026596,230.315125 227.242630,230.949890 
	C227.993286,231.614853 228.679504,232.738220 229.507294,232.854568 
	C231.582291,233.146255 233.721405,232.982025 235.834778,233.000641 
z"/>
<path fill="#998343" opacity="1.000000" stroke="none" 
	d="
M235.893494,232.602966 
	C233.721405,232.982025 231.582291,233.146255 229.507294,232.854568 
	C228.679504,232.738220 227.993286,231.614853 227.242630,230.949890 
	C228.026596,230.315125 228.741501,229.279541 229.609085,229.130066 
	C231.348419,228.830399 233.171173,229.015045 235.397156,228.999557 
	C235.873932,230.067993 235.913071,231.136642 235.893494,232.602966 
z"/>
</svg>